<?xml version="1.0" encoding="UTF-8"?>
<svg width="1364px" height="261px" viewBox="0 0 1364 261" version="1.1" xmlns="http://www.w3.org/2000/svg" xmlns:xlink="http://www.w3.org/1999/xlink">
    <!-- Generator: Sketch 43.1 (39012) - http://www.bohemiancoding.com/sketch -->
    <title>Bubble Copy</title>
    <desc>Created with Sketch.</desc>
    <defs></defs>
    <g id="angle-right" stroke="none" stroke-width="1" fill="none" fill-rule="evenodd">
        <g id="Artboard" transform="translate(-2245.000000, -1566.000000)" fill="#ADE2FF">
            <g id="Group-5" transform="translate(2245.000000, 1566.000000)">
                <path d="M45.6006948,126.557304 C45.6006948,56.6893986 102.260145,0 172.15312,0 L1237.22924,0 C1307.10523,0 1363.78167,56.661635 1363.78167,126.557304 L1363.78167,133.992007 C1363.78167,203.859912 1307.12222,260.549311 1237.22924,260.549311 L172.15312,260.549311 C142.803375,260.549311 115.78232,250.552951 94.311675,233.778298 C72.2824608,249.676282 45.3780059,259.060458 15.8236307,259.060458 C10.4745398,259.060458 5.19480153,260.252377 0,259.674092 C22.970744,255.792132 45.6006948,223.825043 45.6006948,197.243993 L45.6006948,169.488864 L45.6006948,126.557304 Z" id="Bubble-Copy"></path>
            </g>
        </g>
    </g>
</svg>