<?xml version="1.0" encoding="UTF-8"?>
<svg width="591px" height="602px" viewBox="0 0 591 602" version="1.1" xmlns="http://www.w3.org/2000/svg" xmlns:xlink="http://www.w3.org/1999/xlink">
    <!-- Generator: Sketch 43.1 (39012) - http://www.bohemiancoding.com/sketch -->
    <title>Virtual TJBot</title>
    <desc>Created with Sketch.</desc>
    <defs></defs>
    <g id="Cut-Scene-2" stroke="none" stroke-width="1" fill="none" fill-rule="evenodd">
        <g id="Artboard-1" transform="translate(-357.000000, -319.000000)">
            <g id="Virtual-TJBot" transform="translate(358.000000, 319.000000)">
                <g id="TJ-Leg" transform="translate(62.525366, 500.202931)" fill="#F5F3F3">
                    <path d="M62.3892545,0.958701593 C61.2576162,0.347257675 59.9619108,1.42108547e-14 58.5850474,1.42108547e-14 L27.235819,1.42108547e-14 C22.8072365,1.42108547e-14 18.526711,3.51386467 17.661979,7.84843641 L0.625856075,93.2440307 C-0.239808637,97.5832781 2.63980209,101.092467 7.05556322,101.092467 L58.5977089,101.092467 C59.9704792,101.092467 61.2629959,100.745935 62.3923132,100.135505 C63.5224144,100.745935 64.8157843,101.092467 66.1893797,101.092467 L126.125146,101.092467 C130.543997,101.092467 133.342281,97.5979709 132.374987,93.285948 L113.199831,7.80651915 C112.232672,3.49509768 107.871376,1.42108547e-14 103.446217,1.42108547e-14 L66.1907603,1.42108547e-14 C64.8148746,1.42108547e-14 63.5200893,0.347257675 62.3892545,0.958701593 Z" id="Combined-Shape-Copy"></path>
                    <path d="M303.178432,0.958701593 C302.046793,0.347257675 300.751088,1.42108547e-14 299.374224,1.42108547e-14 L268.024996,1.42108547e-14 C263.596414,1.42108547e-14 259.315888,3.51386467 258.451156,7.84843641 L241.415033,93.2440307 C240.549368,97.5832781 243.428979,101.092467 247.84474,101.092467 L299.386886,101.092467 C300.759656,101.092467 302.052173,100.745935 303.18149,100.135505 C304.311591,100.745935 305.604961,101.092467 306.978557,101.092467 L366.914323,101.092467 C371.333174,101.092467 374.131458,97.5979709 373.164164,93.285948 L353.989008,7.80651915 C353.021849,3.49509768 348.660553,1.42108547e-14 344.235394,1.42108547e-14 L306.979937,1.42108547e-14 C305.604052,1.42108547e-14 304.309266,0.347257675 303.178432,0.958701593 Z" id="Combined-Shape-Copy-2"></path>
                </g>
                <g id="TJ-Arm" transform="translate(469.605411, 315.287486)" fill="#F6F4F4">
                    <path d="M49.0183269,91.799131 L8.00276083,91.799131 C3.58087673,91.799131 0,95.3784801 0,99.793831 L0,146.928445 C0,151.348462 3.58295807,154.923145 8.00276083,154.923145 L112.192277,154.923145 C116.614161,154.923145 120.195037,151.343796 120.195037,146.928445 L120.195037,99.793831 C120.195037,99.4314597 120.170955,99.0747701 120.124303,98.7252664 L120.124303,8.00103438 C120.124303,3.57958447 116.541987,-5.96636544e-13 112.122976,-5.96365958e-13 L57.0196545,-5.92991853e-13 C52.5932132,-5.92720811e-13 49.0183269,3.58218511 49.0183269,8.00103438 L49.0183269,91.799131 Z" id="Arm"></path>
                </g>
                <g id="TJ-Body">
                    <path d="M71.837655,392.77903 L87.7751186,290.629379 L381.660775,290.629379 L399.098083,392.77903 L71.837655,392.77903 Z M0.223022428,451.834065 L24.2908102,397.720698 L468.099047,397.720698 L494.431808,451.834065 L0.223022428,451.834065 Z" id="Path-5" stroke="#979797" fill="#525252"></path>
                    <path d="M246.080554,70.0184311 C263.530137,70.0184311 277.675819,52.6573747 277.675819,31.2414264 C277.675819,9.825478 263.530137,0.342647964 246.080554,0.342647964 C228.630971,0.342647964 214.485289,9.825478 214.485289,31.2414264 C214.485289,52.6573747 228.630971,70.0184311 246.080554,70.0184311 Z" id="light" fill="#F6CB23"></path>
                    <path d="M491.742071,397.803064 L0,397.803064 L0,37.2628963 C0,33.9490701 2.69031961,31.2626832 5.99605671,31.2626832 L485.746015,31.2626832 C489.057545,31.2626832 491.742071,33.945452 491.742071,37.2628963 L491.742071,397.803064 Z M137.406254,349.88354 C153.414012,349.88354 166.390863,336.778481 166.390863,320.61257 C166.390863,304.44666 153.414012,291.341601 137.406254,291.341601 C121.398497,291.341601 108.421646,304.44666 108.421646,320.61257 C108.421646,336.778481 121.398497,349.88354 137.406254,349.88354 Z M349.593402,349.88354 C365.601159,349.88354 378.57801,336.778481 378.57801,320.61257 C378.57801,304.44666 365.601159,291.341601 349.593402,291.341601 C333.585645,291.341601 320.608794,304.44666 320.608794,320.61257 C320.608794,336.778481 333.585645,349.88354 349.593402,349.88354 Z" id="face" fill="#E7E7E7"></path>
                    <rect id="Combined-Shape" fill="#DFDFDF" x="0" y="445.621642" width="495.067889" height="63.2570452" rx="8"></rect>
                </g>
            </g>
        </g>
    </g>
</svg>