<?xml version="1.0" encoding="UTF-8"?>
<svg width="1323px" height="846px" viewBox="0 0 1323 846" version="1.1" xmlns="http://www.w3.org/2000/svg" xmlns:xlink="http://www.w3.org/1999/xlink">
    <!-- Generator: Sketch 43.1 (39012) - http://www.bohemiancoding.com/sketch -->
    <title>Group 10</title>
    <desc>Created with Sketch.</desc>
    <defs>
        <linearGradient x1="50%" y1="0%" x2="50%" y2="100%" id="linearGradient-1">
            <stop stop-color="#89D4FE" offset="0%"></stop>
            <stop stop-color="#F5E6E6" offset="100%"></stop>
        </linearGradient>
        <rect id="path-2" x="0" y="0" width="1323" height="846" rx="250"></rect>
        <path d="M3.06323735,16.7711764 C-3.67203408,9.38962612 1.82543496,-1.00044417e-11 9.63139331,-1.00044417e-11 L195.185161,-1.00044417e-11 C202.990416,-1.00044417e-11 214.776406,5.98235658 221.513112,13.3654791 L457.181651,265.235099 C463.916922,272.616649 457.348231,284.044791 449.542273,284.044791 L263.103567,282.84443 C255.298312,282.84443 241.794891,273.299715 235.058185,265.916592 L3.06323735,16.7711764 Z" id="path-4"></path>
        <path d="M8.92644175,13.0761125 C2.19117032,5.85437498 3.05785922,-5.91171556e-12 10.8638176,-5.91171556e-12 L196.417585,-5.91171556e-12 C204.22284,-5.91171556e-12 216.008831,5.85283679 222.745537,13.0761125 L456.139061,263.32687 C462.874333,270.548607 462.007644,276.402982 454.201685,276.402982 L268.647918,276.402982 C260.842663,276.402982 249.056672,270.550146 242.319966,263.32687 L8.92644175,13.0761125 Z" id="path-5"></path>
    </defs>
    <g id="angle-right" stroke="none" stroke-width="1" fill="none" fill-rule="evenodd">
        <g id="Group-10">
            <g id="TJ-dream-2-Copy">
                <mask id="mask-3" fill="white">
                    <use xlink:href="#path-2"></use>
                </mask>
                <use id="Mask" fill="url(#linearGradient-1)" xlink:href="#path-2"></use>
                <g id="TJ-dream-2" mask="url(#mask-3)" fill="#A9DC58">
                    <g transform="translate(-96.760265, 532.755464)" id="TJ-dream-3---green">
                        <path d="M757.158153,431.100796 C1171.4719,431.100796 1454.961,308.660567 1507.33956,215.973095 C1559.71812,123.285623 1170.56193,0.845393484 756.248181,0.845393484 C341.934432,0.845393484 -55.9495679,98.6161122 6.9767498,215.973095 C69.9030675,333.330078 342.844405,431.100796 757.158153,431.100796 Z"></path>
                    </g>
                </g>
            </g>
            <g id="screen" transform="translate(408.758718, 703.175903) rotate(-29.000000) translate(-408.758718, -703.175903) translate(178.258718, 560.675903)">
                <g id="Rectangle-7">
                    <use fill="#B0B0B0" fill-rule="evenodd" xlink:href="#path-4"></use>
                    <path stroke="#979797" stroke-width="1" d="M3.43090129,16.432311 C-2.61798188,9.8004059 1.67219919,0.5 9.63139331,0.5 L195.185161,0.5 C202.839515,0.5 214.496589,6.41749758 221.14376,13.7024936 L456.81655,265.576715 C462.854016,272.193561 457.520332,283.544791 449.542273,283.544791 L263.106786,282.34444 C256.212251,282.34443 243.103917,273.992539 235.427538,265.579578 L3.43090129,16.432311 Z M3.42916091,16.430442 L3.43258982,16.4341619 L3.42916091,16.430442 Z"></path>
                </g>
                <g id="Rectangle-7">
                    <use fill="#FFFFFF" fill-rule="evenodd" xlink:href="#path-5"></use>
                    <path stroke="#979797" stroke-width="1" d="M9.29209606,12.7350892 C2.81026281,5.7850948 3.59311364,0.5 10.8638176,0.5 L196.417585,0.5 C204.074574,0.5 215.732795,6.28995142 222.379882,13.4171359 L455.773407,263.667893 C462.25524,270.617888 461.472389,275.902982 454.201685,275.902982 L268.647918,275.902982 C260.990929,275.902982 249.332708,270.113031 242.685621,262.985847 L9.29209606,12.7350892 Z"></path>
                </g>
                <path d="M39.6730218,25.9297775 C33.3968142,19.1383784 34.2997997,13.6328616 41.694556,13.6328616 L197.715892,13.6328616 C205.108563,13.6328616 216.190944,19.1400732 222.465585,25.9297775 L392.331087,209.738932 C398.607295,216.530331 397.704309,222.035848 390.309553,222.035848 L234.288216,222.035848 C226.895546,222.035848 215.813165,216.528636 209.538524,209.738932 L39.6730218,25.9297775 Z" id="Rectangle-7" fill="#2C2D2D"></path>
                <path d="M348.456668,257.43198 C353.985289,257.43198 354.288327,253.403544 349.133522,248.434216 C343.978717,243.464888 335.937315,239.436451 331.172548,239.436451 C326.40778,239.436451 326.104742,243.464888 330.495693,248.434216 C334.886644,253.403544 342.928046,257.43198 348.456668,257.43198 Z" id="Oval-6" stroke="#979797" fill="#FFFFFF"></path>
            </g>
        </g>
    </g>
</svg>