<?xml version="1.0" encoding="UTF-8"?>
<svg width="1905px" height="1293px" viewBox="0 0 1905 1293" version="1.1" xmlns="http://www.w3.org/2000/svg" xmlns:xlink="http://www.w3.org/1999/xlink">
    <!-- Generator: Sketch 43.1 (39012) - http://www.bohemiancoding.com/sketch -->
    <title>IPAD</title>
    <desc>Created with Sketch.</desc>
    <defs>
        <linearGradient x1="46.7893898%" y1="102.515551%" x2="46.7893898%" y2="-24.6222281%" id="linearGradient-1">
            <stop stop-color="#292929" offset="0%"></stop>
            <stop stop-color="#B2B2B2" offset="100%"></stop>
        </linearGradient>
        <radialGradient cx="46.7893898%" cy="102.515551%" fx="46.7893898%" fy="102.515551%" r="158.70482%" gradientTransform="translate(0.467894,1.025156),scale(0.719424,1.000000),rotate(-90.000000),translate(-0.467894,-1.025156)" id="radialGradient-2">
            <stop stop-color="#292929" offset="0%"></stop>
            <stop stop-color="#909090" offset="79.2430644%"></stop>
            <stop stop-color="#B2B2B2" offset="100%"></stop>
        </radialGradient>
    </defs>
    <g id="angle-right" stroke="none" stroke-width="1" fill="none" fill-rule="evenodd">
        <g id="IPAD" transform="translate(952.500000, 646.500000) scale(-1, 1) rotate(90.000000) translate(-952.500000, -646.500000) translate(308.000000, -304.000000)">
            <path d="M1216.97188,1900.63412 L72.5257349,1900.63412 C32.7465953,1900.63412 0.497613954,1868.39529 0.497613954,1828.62587 L0.497613954,72.5058941 C0.497613954,32.7364741 32.7406,0.497642372 72.5257349,0.497642372 L1216.97188,0.497642372 C1256.75701,0.497642372 1289,32.7364741 1289,72.5058941 L1289,1828.62587 C1289,1868.39529 1256.75701,1900.63412 1216.97188,1900.63412 Z" id="bezel" stroke="#7E89A3" stroke-width="2" fill="#FDFDFD" fill-rule="nonzero"></path>
            <path d="M1216.97188,1900.63412 L72.5257349,1900.63412 C32.7465953,1900.63412 0.497613954,1868.39529 0.497613954,1828.62587 L0.497613954,72.5058941 C0.497613954,32.7364741 32.7406,0.497642372 72.5257349,0.497642372 L1216.97188,0.497642372 C1256.75701,0.497642372 1289,32.7364741 1289,72.5058941 L1289,1828.62587 C1289,1868.39529 1256.75701,1900.63412 1216.97188,1900.63412 Z" id="bezel-2" stroke="#7E89A3" stroke-width="4" fill="#FDFDFD" fill-rule="nonzero"></path>
            <g id="Group-6" transform="translate(645.500000, 949.000000) rotate(-90.000000) translate(-645.500000, -949.000000) translate(-112.500000, 403.500000)">
                <rect id="Rectangle-3-Copy-9" fill="url(#linearGradient-1)" style="mix-blend-mode: multiply;" x="6.82121026e-13" y="0" width="1515.14015" height="1090.02753"></rect>
                <rect id="Rectangle-3-Copy-10" fill-opacity="0.800000012" fill="url(#radialGradient-2)" style="mix-blend-mode: multiply;" x="2.27373675e-13" y="0" width="1515.14015" height="1090.02753"></rect>
            </g>
            <ellipse id="lock" stroke="#7E89A3" stroke-width="4" cx="647.623577" cy="1798.83328" rx="48.088693" ry="48.0914394"></ellipse>
            <ellipse id="camera" fill="#7E89A3" cx="637.291618" cy="106.017785" rx="13.7753394" ry="13.7761261"></ellipse>
        </g>
    </g>
</svg>