<?xml version="1.0" encoding="UTF-8"?>
<svg width="372px" height="263px" viewBox="0 0 372 263" version="1.1" xmlns="http://www.w3.org/2000/svg" xmlns:xlink="http://www.w3.org/1999/xlink">
    <!-- Generator: Sketch 43.2 (39069) - http://www.bohemiancoding.com/sketch -->
    <title>Bee</title>
    <desc>Created with Sketch.</desc>
    <defs></defs>
    <g id="angle-right" stroke="none" stroke-width="1" fill="none" fill-rule="evenodd">
        <g id="Bee">
            <g id="eyes" transform="translate(129.465116, 0.000000)">
                <ellipse id="Oval-9" fill="#F7B1BA" cx="27.5426357" cy="27.5604396" rx="27.5426357" ry="27.5604396"></ellipse>
                <ellipse id="Oval-9" fill="#F8B0BC" cx="88.4263566" cy="27.5604396" rx="27.5426357" ry="27.5604396"></ellipse>
            </g>
            <g id="wings" transform="translate(0.000000, 82.230769)" fill="#26923C">
                <path d="M72.8421399,129.372085 C118.156334,100.247942 126.486613,0.951377859 126.486613,0.951377859 C126.486613,0.951377859 47.5364906,17.21181 13.2435579,60.2104629 C0.299133848,76.4410024 -8.13922301,107.150956 13.2435579,125.994539 C34.6263389,144.838123 58.437255,138.630331 72.8421399,129.372085 Z" id="Oval-10"></path>
                <path d="M318.094352,130.321807 C363.408546,101.197663 371.738824,1.9010989 371.738824,1.9010989 C371.738824,1.9010989 292.788702,18.1615311 258.49577,61.160184 C245.551346,77.3907235 237.112989,108.100677 258.49577,126.944261 C279.878551,145.787844 303.689467,139.580052 318.094352,130.321807 Z" id="Oval-10" transform="translate(308.586466, 70.549350) scale(-1, 1) translate(-308.586466, -70.549350) "></path>
            </g>
            <path d="M244.234724,117.353377 C244.366782,118.97045 244.434109,120.605849 244.434109,122.256979 L244.434109,147.707236 C241.672787,145.425672 238.130412,144.054945 234.267621,144.054945 L135.732379,144.054945 C131.871008,144.054945 128.328011,145.426841 125.565891,147.709853 L125.565891,122.256979 C125.565891,120.606662 125.633139,118.972055 125.765045,117.355751 C128.496582,119.540111 131.961832,120.846154 135.732379,120.846154 L234.267621,120.846154 C238.036701,120.846154 241.502444,119.539053 244.234724,117.353377 Z M234.220812,88.9340659 C223.532049,73.1770912 205.475137,62.8241758 185,62.8241758 C164.520611,62.8241758 146.465005,73.1773501 135.777668,88.9340659 L234.220812,88.9340659 Z M244.434109,172.312125 L244.434109,203.567197 C244.434109,205.217514 244.366861,206.85212 244.234955,208.468425 C241.503418,206.284064 238.038168,204.978022 234.267621,204.978022 L135.732379,204.978022 C131.963299,204.978022 128.497556,206.285123 125.765276,208.470799 C125.633218,206.853726 125.565891,205.218327 125.565891,203.567197 L125.565891,172.314742 C128.327213,174.596306 131.869588,175.967033 135.732379,175.967033 L234.267621,175.967033 C238.128992,175.967033 241.671989,174.595137 244.434109,172.312125 Z M234.222332,236.89011 C223.534995,252.646826 205.479389,263 185,263 C164.524863,263 146.467951,252.647085 135.779188,236.89011 L234.222332,236.89011 Z" id="Combined-Shape" fill="#F2B50F"></path>
        </g>
    </g>
</svg>