<?xml version="1.0" encoding="UTF-8"?>
<svg width="888px" height="904px" viewBox="0 0 888 904" version="1.1" xmlns="http://www.w3.org/2000/svg" xmlns:xlink="http://www.w3.org/1999/xlink">
    <!-- Generator: Sketch 43.1 (39012) - http://www.bohemiancoding.com/sketch -->
    <title>Group 8</title>
    <desc>Created with Sketch.</desc>
    <defs></defs>
    <g id="angle-right" stroke="none" stroke-width="1" fill="none" fill-rule="evenodd">
        <g id="Group-8" transform="translate(1.000000, 0.000000)">
            <g id="Group-7">
                <g id="Group-3-Copy" transform="translate(94.000000, 752.000000)" fill="#F5F3F3">
                    <path d="M93.8021478,0.177685784 C93.2597279,0.0612881657 92.6969038,1.42108547e-14 92.1197996,1.42108547e-14 L36.9024182,1.42108547e-14 C32.4868024,1.42108547e-14 28.2055052,3.51507706 27.3404749,7.85114435 L0.153270472,144.130243 C-0.711832341,148.466674 2.17281468,151.981387 6.59614793,151.981387 L92.1063137,151.981387 C92.6856128,151.981387 93.2504863,151.920037 93.7947847,151.803493 C94.3393814,151.920037 94.9047715,151.981387 95.4848644,151.981387 L193.638838,151.981387 C198.059933,151.981387 200.859611,148.48499 199.894575,144.183032 L169.300109,7.79835531 C168.333962,3.4914426 163.967782,1.42108547e-14 159.543595,1.42108547e-14 L95.4869118,1.42108547e-14 C94.9089789,1.42108547e-14 94.3453465,0.0612881657 93.8021478,0.177685784 Z" id="Combined-Shape-Copy"></path>
                    <path d="M455.802148,0.177685784 C455.259728,0.0612881657 454.696904,1.42108547e-14 454.1198,1.42108547e-14 L398.902418,1.42108547e-14 C394.486802,1.42108547e-14 390.205505,3.51507706 389.340475,7.85114435 L362.15327,144.130243 C361.288168,148.466674 364.172815,151.981387 368.596148,151.981387 L454.106314,151.981387 C454.685613,151.981387 455.250486,151.920037 455.794785,151.803493 C456.339381,151.920037 456.904771,151.981387 457.484864,151.981387 L555.638838,151.981387 C560.059933,151.981387 562.859611,148.48499 561.894575,144.183032 L531.300109,7.79835531 C530.333962,3.4914426 525.967782,1.42108547e-14 521.543595,1.42108547e-14 L457.486912,1.42108547e-14 C456.908979,1.42108547e-14 456.345347,0.0612881657 455.802148,0.177685784 Z" id="Combined-Shape-Copy-2"></path>
                </g>
                <g id="TJBot-Copy">
                    <g id="TJ-Arm" transform="translate(706.000000, 474.000000)" fill="#F6F4F4">
                        <path d="M73.6936542,138.00988 L7.99761137,138.00988 C3.58921441,138.00988 0,141.59578 0,146.019212 L0,224.900549 C0,229.334283 3.58065257,232.909881 7.99761137,232.909881 L172.702386,232.909881 C177.110783,232.909881 180.699997,229.323981 180.699997,224.900549 L180.699997,146.019212 C180.699997,145.572278 180.663613,145.134063 180.593656,144.707351 L180.593656,8.0049295 C180.593656,3.5770914 177.015893,2.19074773e-16 172.602499,4.893172e-16 L81.6848105,6.05642003e-15 C77.2809762,6.32607712e-15 73.6936542,3.58392902 73.6936542,8.0049295 L73.6936542,138.00988 Z" id="Arm"></path>
                    </g>
                    <polygon id="Path-5" stroke="#979797" fill="#525252" points="0.335289649 679.282738 743.323753 679.282738 703.735347 597.929253 36.5185571 597.929253"></polygon>
                    <g id="TJ-Body">
                        <path d="M369.955002,105.264997 C396.188527,105.264997 417.455002,79.1645617 417.455002,46.9680427 C417.455002,14.7715237 396.188527,0.515133464 369.955002,0.515133464 C343.721476,0.515133464 322.455002,14.7715237 322.455002,46.9680427 C322.455002,79.1645617 343.721476,105.264997 369.955002,105.264997 Z" id="light" fill="#F6CB23"></path>
                        <path d="M739.280029,598.053082 L-1.42108547e-14,598.053082 L0,53.009958 C0,49.6907498 2.6769198,47 6.00500704,47 L733.275022,47 C736.591496,47 739.280029,49.6892494 739.280029,53.009958 L739.280029,598.053082 Z M206.575165,526.011356 C230.641065,526.011356 250.150331,506.309343 250.150331,482.005678 C250.150331,457.702013 230.641065,438 206.575165,438 C182.509266,438 163,457.702013 163,482.005678 C163,506.309343 182.509266,526.011356 206.575165,526.011356 Z M525.575165,526.011356 C549.641065,526.011356 569.150331,506.309343 569.150331,482.005678 C569.150331,457.702013 549.641065,438 525.575165,438 C501.509266,438 482,457.702013 482,482.005678 C482,506.309343 501.509266,526.011356 525.575165,526.011356 Z" id="face" fill="#F6F4F4"></path>
                        <rect id="Combined-Shape" fill="#DFDFDF" x="0" y="669.943045" width="744.280029" height="95.0999985" rx="8"></rect>
                    </g>
                </g>
            </g>
        </g>
    </g>
</svg>